# xmcd CD database file
#
# Track frame offsets:
#	150
#	20311
#	29601
#	44365
#	62348
#	71508
#	93068
#	114640
#	139436
#	151773
#	162596
#
# Disc length: 2408 seconds
#
# Revision: 0
# Processed by: cddbd v1.5.1PL2 Copyright (c) Steve Scherf et al.
# Submitted via: CDex 1.51
#
DISCID=8c09660b
DTITLE=Venus Handcuffs  - Venus Handcuffs
DYEAR=2005
DGENRE=Alternative
TTITLE0=Venus Handcuffs
TTITLE1=Haebsibah
TTITLE2=As Though Through Shadows
TTITLE3=Fur Man
TTITLE4=Birds Fly Out
TTITLE5=Dear Dear
TTITLE6=Gus Black Box
TTITLE7=For The Rest Of The Day
TTITLE8=Phantom
TTITLE9=Rest Home
TTITLE10=I'll Lead You
EXTD=YEAR: 2005
EXTT0=
EXTT1=
EXTT2=
EXTT3=
EXTT4=
EXTT5=
EXTT6=
EXTT7=
EXTT8=
EXTT9=
EXTT10=
PLAYORDER=
